<?xml version="1.0" encoding="utf-8"?>
<!-- Generator: Adobe Illustrator 21.0.0, SVG Export Plug-In . SVG Version: 6.00 Build 0)  -->
<svg version="1.1" id="Capa_1" xmlns="http://www.w3.org/2000/svg" xmlns:xlink="http://www.w3.org/1999/xlink" x="0px" y="0px"
	 viewBox="0 0 19.8 19.8" style="enable-background:new 0 0 19.8 19.8;" xml:space="preserve">
<path d="M9.4,15c-1.2,0-2.2,1-2.2,2.2s1,2.2,2.2,2.2s2.2-1,2.2-2.2S10.6,15,9.4,15z M9.4,18.8c-0.8,0-1.5-0.7-1.5-1.5
	s0.7-1.5,1.5-1.5s1.5,0.7,1.5,1.5C10.9,18.1,10.2,18.8,9.4,18.8z M15.7,15c-1.2,0-2.2,1-2.2,2.2s1,2.2,2.2,2.2s2.2-1,2.2-2.2
	S16.9,15,15.7,15z M15.7,18.8c-0.8,0-1.5-0.7-1.5-1.5s0.7-1.5,1.5-1.5s1.5,0.7,1.5,1.5C17.2,18.1,16.5,18.8,15.7,18.8z M16.8,13.1
	l3-9.4h-15L3.6,0H0v0.8h3l4.1,12.3L16.8,13.1L16.8,13.1z M18.7,4.6l-2.4,7.8H7.7L5.1,4.6H18.7z"/>
</svg>
