<?xml version="1.0" encoding="utf-8"?>
<!-- Generator: Adobe Illustrator 21.0.0, SVG Export Plug-In . SVG Version: 6.00 Build 0)  -->
<svg version="1.1" id="Capa_1" xmlns="http://www.w3.org/2000/svg" xmlns:xlink="http://www.w3.org/1999/xlink" x="0px" y="0px"
	 viewBox="0 0 34 34" style="enable-background:new 0 0 34 34;" xml:space="preserve">
<path d="M0.1,17.6c-0.1-0.3-0.1-0.7,0-1c0.1-0.1,0.1-0.3,0.3-0.4L16.2,0.4c0.6-0.6,1.3-0.6,1.8,0c0.6,0.6,0.6,1.3,0,1.8L4.4,15.7
	h27.9c0.8,0,1.3,0.6,1.3,1.3s-0.6,1.3-1.3,1.3h-28l13.5,13.5c0.6,0.6,0.6,1.3,0,1.8C17.5,33.9,17.1,34,17,34s-0.7-0.1-0.8-0.4
	L0.4,17.8C0.3,17.7,0.1,17.7,0.1,17.6z"/>
</svg>
