<?xml version="1.0" encoding="utf-8"?>
<!-- Generator: Adobe Illustrator 21.0.0, SVG Export Plug-In . SVG Version: 6.00 Build 0)  -->
<svg version="1.1" id="Capa_1" xmlns="http://www.w3.org/2000/svg" xmlns:xlink="http://www.w3.org/1999/xlink" x="0px" y="0px"
	 viewBox="0 0 13.2 13.1" style="enable-background:new 0 0 13.2 13.1;" xml:space="preserve">
<path d="M6.4,3.5c-1.6,0-2.9,1.3-2.9,2.9s1.3,2.9,2.9,2.9S9.3,8,9.3,6.4S8.1,3.5,6.4,3.5z M6.4,8.3c-1,0-1.8-0.9-1.8-1.9
	s0.9-1.8,1.8-1.8s1.8,0.9,1.8,1.8S7.5,8.3,6.4,8.3z"/>
<path d="M9.5,2.7c-0.3,0-0.7,0.3-0.7,0.7S9,4.1,9.5,4.1c0.3,0,0.7-0.3,0.7-0.7S9.8,2.7,9.5,2.7z"/>
<g>
	<path d="M9.1,12H3.8c-1.6,0-2.9-1.3-2.9-2.9V3.8c0-1.6,1.3-2.9,2.9-2.9h5.3c1.6,0,2.9,1.3,2.9,2.9v5.3C12,10.7,10.7,12,9.1,12z
		 M3.8,1.8c-1.1,0-2,0.9-2,2v5.3c0,1.1,0.9,2,2,2h5.3c1.1,0,2-0.9,2-2V3.8c0-1.1-0.9-2-2-2C9.1,1.8,3.8,1.8,3.8,1.8z"/>
</g>
</svg>
