<?xml version="1.0" encoding="utf-8"?>
<!-- Generator: Adobe Illustrator 21.0.0, SVG Export Plug-In . SVG Version: 6.00 Build 0)  -->
<svg version="1.1" id="Capa_1" xmlns="http://www.w3.org/2000/svg" xmlns:xlink="http://www.w3.org/1999/xlink" x="0px" y="0px"
	 viewBox="0 0 14.2 14.2" style="enable-background:new 0 0 14.2 14.2;" xml:space="preserve">
<style type="text/css">
	.st0{fill:#FFFFFF;}
</style>
<path d="M11.4,0.6c1.2,0,2.2,1,2.2,2.2v8.7c0,1.2-1,2.2-2.2,2.2H2.8c-1.2,0-2.2-1-2.2-2.2V2.8c0-1.2,1-2.2,2.2-2.2L11.4,0.6"/>
<polygon class="st0" points="4.7,11.1 3,11.1 3,5.6 4.8,5.6 4.8,11.1 "/>
<path class="st0" d="M3.8,4.9L3.8,4.9c-0.6,0-1-0.4-1-0.9s0.5-1,1-1c0.6,0,1,0.4,1,0.9C4.9,4.5,4.5,4.9,3.8,4.9z"/>
<path class="st0" d="M11.3,11.1H9.5V8.2C9.5,7.5,9.2,7,8.6,7C8.1,7,7.8,7.3,7.7,7.7c0,0.1-0.1,0.3-0.1,0.4v3H5.8c0,0,0-4.9,0-5.5
	h1.8v0.8C7.8,6,8.3,5.5,9.2,5.5c1.2,0,2.1,0.8,2.1,2.5L11.3,11.1L11.3,11.1z"/>
</svg>
