<svg xmlns="http://www.w3.org/2000/svg" xmlns:xlink="http://www.w3.org/1999/xlink" preserveAspectRatio="xMidYMid" width="26" height="26" viewBox="0 0 26 26">
  <defs>
    <style>
      .cls-1 {
        fill: #fff;
        fill-rule: evenodd;
      }
    </style>
  </defs>
  <path d="M18.000,5.720 C18.000,2.658 15.444,-0.000 12.500,-0.000 L5.500,-0.000 C2.556,-0.000 -0.000,2.658 -0.000,5.720 L-0.000,17.160 C-0.000,22.169 3.683,26.000 8.500,26.000 L9.500,26.000 C14.316,26.000 18.000,22.169 18.000,17.160 L18.000,5.720 ZM17.000,17.160 C17.000,21.288 13.470,24.960 9.500,24.960 L8.500,24.960 C4.242,24.960 1.000,21.588 1.000,17.160 L1.000,10.920 L17.000,10.920 L17.000,17.160 ZM17.000,9.880 L1.000,9.880 L1.000,5.720 C1.000,3.236 3.112,1.040 5.500,1.040 L12.500,1.040 C14.888,1.040 17.000,3.236 17.000,5.720 L17.000,9.880 ZM8.500,7.280 L9.500,7.280 L9.500,4.160 L8.500,4.160 L8.500,7.280 Z" transform="translate(4)" class="cls-1"/>
</svg>
