<?xml version="1.0" encoding="utf-8"?>
<!-- Generator: Adobe Illustrator 21.0.0, SVG Export Plug-In . SVG Version: 6.00 Build 0)  -->
<svg version="1.1" id="Capa_1" xmlns="http://www.w3.org/2000/svg" xmlns:xlink="http://www.w3.org/1999/xlink" x="0px" y="0px"
	 viewBox="0 0 34 34" style="enable-background:new 0 0 34 34;" xml:space="preserve">
<path d="M33.9,17.5c0.1-0.3,0.1-0.7,0-1c-0.1-0.1-0.1-0.2-0.2-0.3L18,0.5c-0.6-0.6-1.3-0.6-1.8,0c-0.6,0.6-0.6,1.3,0,1.8l13.5,13.5
	H1.9c-0.8,0-1.3,0.6-1.3,1.3s0.6,1.3,1.3,1.3h27.9L16.3,31.8c-0.6,0.6-0.6,1.3,0,1.8c0.3,0.3,0.7,0.4,0.8,0.4c0.1,0,0.7-0.1,0.8-0.4
	l15.7-15.7C33.8,17.7,33.9,17.6,33.9,17.5z"/>
</svg>
