<?xml version="1.0" encoding="utf-8"?>
<!-- Generator: Adobe Illustrator 21.0.0, SVG Export Plug-In . SVG Version: 6.00 Build 0)  -->
<svg version="1.1" id="Capa_1" xmlns="http://www.w3.org/2000/svg" xmlns:xlink="http://www.w3.org/1999/xlink" x="0px" y="0px"
	 viewBox="0 0 60 50" style="enable-background:new 0 0 60 50;" xml:space="preserve">
<g>
	<path d="M57,4.5H3.3c-1.1,0-2-0.9-2-2s0.9-2,2-2H57c1.1,0,2,0.9,2,2S58.1,4.5,57,4.5z"/>
</g>
<g>
	<path d="M57,26.5H3.3c-1.1,0-2-0.9-2-2s0.9-2,2-2H57c1.1,0,2,0.9,2,2S58.1,26.5,57,26.5z"/>
</g>
<g>
	<path d="M57,48.5H3.3c-1.1,0-2-0.9-2-2s0.9-2,2-2H57c1.1,0,2,0.9,2,2S58.1,48.5,57,48.5z"/>
</g>
</svg>
