<?xml version="1.0" encoding="utf-8"?>
<!-- Generator: Adobe Illustrator 21.0.0, SVG Export Plug-In . SVG Version: 6.00 Build 0)  -->
<svg version="1.1" id="Capa_1" xmlns="http://www.w3.org/2000/svg" xmlns:xlink="http://www.w3.org/1999/xlink" x="0px" y="0px"
	 viewBox="0 0 60 60" style="enable-background:new 0 0 60 60;" xml:space="preserve">
<path d="M58.5,15c0-1.2-1-2.3-2.3-2.3H39.8v-9c0-1.2-1-2.3-2.3-2.3h-15c-1.2,0-2.3,1-2.3,2.3v9H3.8c-1.2,0-2.3,1-2.3,2.3v2.3H9v39
	c0,1.2,1,2.3,2.3,2.3h37.5c1.2,0,2.3-1,2.3-2.3v-39h7.5V15z M24.8,6h10.5v6.8H24.8V6z M46.5,54h-33V17.3h33V54z"/>
</svg>
