<?xml version="1.0" encoding="utf-8"?>
<!-- Generator: Adobe Illustrator 21.0.0, SVG Export Plug-In . SVG Version: 6.00 Build 0)  -->
<svg version="1.1" id="Capa_1" xmlns="http://www.w3.org/2000/svg" xmlns:xlink="http://www.w3.org/1999/xlink" x="0px" y="0px"
	 viewBox="0 0 14.2 14.2" style="enable-background:new 0 0 14.2 14.2;" xml:space="preserve">
<path d="M13.5,3.2c-0.5,0.2-1,0.4-1.5,0.4c0.6-0.3,1-0.9,1.2-1.5c-0.5,0.3-1.1,0.5-1.7,0.6c-0.4-0.5-1.2-0.9-1.9-0.9
	C8.1,1.9,6.8,3,6.8,4.6c0,0.2,0,0.4,0.1,0.6C4.7,5.1,2.8,4,1.4,2.3C1.2,2.8,1.1,3.2,1.1,3.7c0,0.9,0.5,1.7,1.2,2.2
	c-0.4,0-0.9-0.1-1.2-0.3l0,0c0,1.3,0.9,2.3,2.1,2.6C2.9,8.3,2.7,8.3,2.5,8.3c-0.2,0-0.3,0-0.5,0c0.3,1.1,1.3,1.8,2.5,1.9
	c-0.9,0.7-2.1,1.1-3.3,1.1c-0.2,0-0.4,0-0.6,0c1.2,0.8,2.6,1.2,4.1,1.2c4.9,0,7.6-4,7.6-7.6c0-0.1,0-0.2,0-0.3
	C12.7,4.1,13.1,3.7,13.5,3.2z"/>
</svg>
