<?xml version="1.0" encoding="utf-8"?>
<!-- Generator: Adobe Illustrator 21.0.0, SVG Export Plug-In . SVG Version: 6.00 Build 0)  -->
<svg version="1.1" id="Capa_1" xmlns="http://www.w3.org/2000/svg" xmlns:xlink="http://www.w3.org/1999/xlink" x="0px" y="0px"
	 viewBox="0 0 14.2 14.2" style="enable-background:new 0 0 14.2 14.2;" xml:space="preserve">
<g>
	<path d="M11.1,13.6H3.1c-1.4,0-2.5-1.2-2.5-2.5V2.9c0-1.4,1.2-2.5,2.5-2.5h8.1c1.4,0,2.5,1.2,2.5,2.5v8.2
		C13.7,12.4,12.5,13.6,11.1,13.6z M3.1,1.3C2.2,1.3,1.5,2,1.5,2.9v8.2c0,0.9,0.7,1.6,1.6,1.6h8.1c0.9,0,1.6-0.7,1.6-1.6V2.9
		c0-0.9-0.7-1.6-1.6-1.6H3.1z"/>
</g>
<path d="M11.6,5.2c0,0-0.1-0.6-0.4-0.9C10.9,4,10.5,4,10.3,4C9,3.9,5.2,3.9,3.9,4c-0.2,0-0.6,0-1,0.4C2.7,4.6,2.6,5.2,2.6,5.2
	S2.5,6,2.5,6.7v0.7c0,0.7,0.1,1.4,0.1,1.4S2.7,9.3,3,9.6C3.3,9.9,3.8,9.9,4,10c0.8,0,5,0.1,6.3,0c0.2,0,0.6,0,0.9-0.4
	c0.3-0.2,0.4-0.9,0.4-0.9s0.1-0.7,0.1-1.4l0-0.7C11.7,6,11.6,5.2,11.6,5.2z M6.2,8.1V5.7l2.4,1.2L6.2,8.1z"/>
</svg>
