<!-- Generator: Adobe Illustrator 21.0.0, SVG Export Plug-In  -->
<svg version="1.1"
	 xmlns="http://www.w3.org/2000/svg" xmlns:xlink="http://www.w3.org/1999/xlink" xmlns:a="http://ns.adobe.com/AdobeSVGViewerExtensions/3.0/"
	 x="0px" y="0px" width="40.2px" height="65.1px" viewBox="0 0 40.2 65.1"
	 style="overflow:scroll;enable-background:new 0 0 40.2 65.1;" xml:space="preserve">
<style type="text/css">
	.st0{fill:#2E292B;}
	.st1{fill:#FAA11C;}
</style>
<defs>
</defs>
<path class="st0" d="M8.1,46.9v0.4c-0.2,0-0.3,0-0.5,0H6.1v4.7h1.5c0.2,0,0.3,0,0.5,0v0.4c-0.1,0-0.3,0-0.4,0H5.7v-5.4h1.9
	C7.7,46.9,7.9,46.9,8.1,46.9 M4.8,46.9H1.9v5.4h2.9v-0.3H2.3v-2.2h2.4v-0.3H2.3v-2.2h2.5V46.9z M18.7,46.9h-0.4v5.4h0.4V46.9z
	 M17.5,47.3c-0.6-0.3-1.3-0.4-1.9-0.4c-1.4,0-2.8,1.1-2.8,2.8c0,1.6,1.2,2.8,2.8,2.8c0.6,0,1.3-0.2,1.9-0.5v-0.4
	c-0.7,0.4-1.3,0.6-1.9,0.6c-1.4,0-2.4-1-2.4-2.4c0-1.4,1-2.4,2.3-2.4c0.6,0,1.2,0.2,1.9,0.5V47.3z M11.9,46.9h-0.4v5.4h0.4V46.9z
	 M8.1,52.3v-0.4c1.1-0.2,1.9-1,1.9-2.3c0-1.2-0.8-2.1-1.9-2.3v-0.4c1.8,0.2,2.4,1.6,2.4,2.7C10.5,50.8,9.8,52.1,8.1,52.3 M22.5,46.8
	v0.4c-1.3,0-2.4,1-2.4,2.4s1,2.4,2.4,2.4v0.4h0c-1.6,0-2.8-1.2-2.8-2.8C19.7,48.1,20.9,46.8,22.5,46.8L22.5,46.8z M38.5,47.2
	c-0.4-0.2-0.8-0.3-1.2-0.3c-0.8,0-1.5,0.6-1.5,1.4c0,1.8,2.5,1.1,2.5,2.6c0,0.6-0.5,1.1-1.1,1.1c-0.4,0-0.7-0.1-1.3-0.6v0.5
	c0.5,0.3,0.9,0.5,1.4,0.5c0.9,0,1.5-0.6,1.5-1.5c0-1.9-2.5-1.2-2.5-2.6c0-0.6,0.5-1,1.1-1c0.4,0,0.6,0.1,1.2,0.4V47.2z M35.1,46.9
	h-2.9v5.4h2.9v-0.3h-2.5v-2.2h2.4v-0.3h-2.4v-2.2h2.5V46.9z M31,46.9h-0.4v4.7l-4-4.7h-0.4v5.4h0.4v-4.7l4,4.7H31V46.9z M22.5,52.4
	V52h0c1.3,0,2.3-1,2.3-2.4s-1-2.4-2.3-2.4h0v-0.4c1.6,0,2.8,1.2,2.8,2.8S24.1,52.4,22.5,52.4"/>
<path class="st0" d="M12.5,59.7H7.3v1h1.9v4.4h1.3v-4.4h1.9V59.7z M5.9,64.1H3.3v-1.3h2.5v-1H3.3v-1.1h2.6v-1H1.9v5.4h4V64.1z
	 M11.1,53.6c-0.7-0.3-1.2-0.4-1.8-0.4c-1.2,0-2,0.6-2,1.5c0,1.9,2.7,1.6,2.7,2.5c0,0.3-0.3,0.5-0.8,0.5c-0.6,0-1.1-0.2-1.8-0.7v1.2
	c0.5,0.3,1,0.5,1.9,0.5c1.2,0,2.1-0.6,2.1-1.6c0-1.9-2.7-1.6-2.7-2.5c0-0.3,0.3-0.4,0.8-0.4c0.5,0,0.9,0.1,1.7,0.5V53.6z M15,65.1
	h-0.9v-5.4H15V65.1z M15,53.2v1c-0.1,0-0.2,0-0.3,0h-0.5v1.2h0.6l0.1,0v1h-0.7v2.2H13v-5.4H15z M5.9,57.6H3.3v-1.3h2.5v-1H3.3v-1.1
	h2.6v-1H1.9v5.4h4V57.6z M20.1,53.2h-1.3v5.4h1.3V53.2z M15,56.5v-1c0.5,0,0.7-0.2,0.7-0.6c0-0.4-0.2-0.6-0.7-0.6v-1h0.3
	c1.2,0,1.8,0.9,1.8,1.6c0,0.8-0.5,1.6-1.8,1.6H15z M15,65.1v-5.4h3v1h-2.6v1.1h2.4v1h-2.4v1.3h2.6v1H15z M21.9,59.7v1l0,0h-0.7v1.2
	h0.7l0,0V63c-0.1-0.1-0.2-0.1-0.3-0.1h-0.4v2.2h-1.3v-5.4H21.9z M24,61.1v0.5c-0.1,0.5-0.4,0.8-0.9,1.1c0.4,0.2,0.6,0.6,0.9,1.3v1.2
	h-0.9c-0.5-1-0.7-1.8-1.2-2.1v-1.1c0.4,0,0.7-0.2,0.7-0.6c0-0.4-0.2-0.6-0.7-0.6v-1h0.3C23.2,59.7,23.9,60.3,24,61.1 M24,53.2v1l0,0
	h-0.7v1.2H24h0v1.1c-0.1-0.1-0.2-0.1-0.3-0.1h-0.4v2.2h-1.3v-5.4H24z M24,56.5v-1.1c0.4,0,0.7-0.2,0.7-0.6c0-0.4-0.2-0.6-0.7-0.6v-1
	h0.3c1.1,0,1.8,0.7,1.8,1.5c0,0.6-0.3,1-0.9,1.3c0.5,0.3,0.7,0.9,1.5,2.5h-1.5C24.7,57.7,24.5,56.8,24,56.5 M24,61.5v-0.5l0,0.2
	L24,61.5z M24,65.1v-1.2c0.2,0.3,0.3,0.7,0.6,1.2H24z M30.3,59.7v5.4h-0.1l-3-3.4v3.4h-1.3v-5.4h1.2L30,63v-3.3H30.3z M30.3,53.2
	v1.4l0-0.1l-0.8,2.1h0.8v0.9h-1.2l-0.4,1.1h-1.4l2.2-5.4H30.3z M30.3,57.5v-0.9h0.8l-0.8-2v-1.4H31l2.4,5.4H32l-0.4-1.1H30.3z
	 M30.3,59.7h1.1v5.4h-1.1V59.7z M35.8,59.7v1.4l0-0.1l-0.8,2.1h0.8v0.9h-1.2l-0.4,1.1h-1.4l2.2-5.4H35.8z M35.8,58.6h-1.1v-5.4h1.1
	V58.6z M35.8,58.6v-5.4H36v4.4h2.8v1H35.8z M35.8,64.1v-0.9h0.8l-0.8-2v-1.4h0.7l2.4,5.4h-1.4L37,64.1H35.8z"/>
<path class="st1" d="M20,9.1L20,9.1L20,9.1z M19.9,0L19.9,0L19.9,0z M20,10.2c-4.6,0.1-9.1,3.3-9.7,9.5l0,0c0,0.1,0,0.2,0,0.3v0v0
	l0,0v0v0l0,0v0v0l0,0v0v0v0l0,0v0l0,0v0l0,0v0c0,0.2,0,0.3,0,0.5c0.1,6.4,4.8,10.4,9.8,11.1v-2.4c-1.4-0.7-2.4-1.8-2.6-3.8v-5.3v0
	v-0.1v-0.1v-0.5H20v-1.2h-2.6v-3.2c0.1-1.8,1.2-2.8,2.6-3.1V10.2z M20,8L20,8l-0.1,0c-1.1,0.1-2,0.3-3,0.5c-0.9,0.2-1.8,0.6-2.6,1
	c-4.1,2.1-6.3,6.2-6.4,11.4c0,0.2,0,0.4,0,0.6c0.1,3.8,2,6.9,4.5,9.1c2.2,1.9,5,3.1,7.6,3.4v-1c-2.3-0.3-4.9-1.4-6.9-3.2
	c-2.4-2-4.1-4.9-4.2-8.4c0-0.2,0-0.4,0-0.6c0.1-4.8,2.1-8.6,5.9-10.5c0.7-0.4,1.5-0.7,2.4-0.9C18.1,9.3,19,9.1,20,9.1l0,0V8z M20,6
	l-0.2,0c-3.8,0-7.3,1.8-9.9,4.4c-2.6,2.7-4.2,6.2-4.2,9.9v0c0,5.2,2.1,9.2,5.1,11.9c2.6,2.3,5.9,3.7,9.1,4v-1
	c-3-0.3-6.1-1.6-8.5-3.7C8.8,29,6.8,25.3,6.8,20.3v0c0-3.4,1.5-6.7,3.9-9.2C13.1,8.7,16.4,7,19.9,7H20V6z M20,3.8l-0.2,0
	c-0.1,0-0.3,0-0.4,0c-4,0.1-7.8,2.1-10.7,5.1c-2.9,3-4.8,7-4.8,11v0.5l0,0.1c0,1.7,0.3,3.2,0.6,4.7c0.4,1.5,0.9,2.8,1.5,4
	c2.9,5.7,8.5,8.6,14,9.2v-1c-5.2-0.5-10.4-3.4-13.1-8.7c-0.6-1.1-1.1-2.4-1.4-3.7C5.2,23.5,5,22,5,20.4v0v-0.1c0-0.1,0-0.3,0-0.4
	C5,16.1,6.8,12.4,9.5,9.6c2.7-2.8,6.3-4.7,10-4.8c0.1,0,0.3,0,0.4,0l0.2,0V3.8z M20,1.9L20,1.9l-0.2,0C15,2,10.5,4.2,7.2,7.5
	c-3.3,3.3-5.3,7.9-5.3,12.8l0,0.1v0c0,1.6,0.2,3.2,0.6,4.7c0.3,1.5,0.9,2.9,1.5,4.2c3.1,6.3,9.1,10.3,16,10.8v-1
	C13.5,38.7,7.8,34.9,5,29c-0.6-1.2-1.1-2.6-1.4-4C3.2,23.5,3,22,3,20.5l0,0l0-0.1c-0.1-4.7,1.9-8.9,5-12.1C11,5.1,15.3,3,19.9,2.9
	l0.1,0h0V1.9z M20,0v1l0,0h-0.1c-1.5,0-2.9,0.2-4.3,0.5c-1.4,0.3-2.7,0.8-3.9,1.4C5.4,6.1,1.1,12.7,1,20.3v0.1C1,22,1.2,23.5,1.5,25
	c0.3,1.5,0.8,2.9,1.4,4.2c3,6.5,9.4,11.3,17.1,11.8c0,0.2,0,0.3,0,0.5c-8-0.2-14.8-5-18-11.9c-0.7-1.4-1.2-2.9-1.5-4.4
	C0.2,23.7,0,22.1,0,20.4l0-0.1c0.1-8,4.6-15,11.3-18.3c1.3-0.7,2.7-1.1,4.1-1.5C16.9,0.2,18.4,0,19.9,0L20,0L20,0z M20,9.1L20,9.1
	L20,9.1z M20,19.6h10.1c-0.7-6.4-5.4-9.5-10.1-9.3v1.8c1.9-0.5,4.3,0.6,4.4,3.2v3.1H20V19.6z M20,31.8c4.3,0.6,8.9-1.2,11.2-6.1
	c0.7-1.5,1.1-3.3,1.2-5.3c0-0.3,0-0.6,0-0.9c-0.2-2.4-1.3-5.3-3.3-7.5c-2-2.3-4.7-3.9-8.1-4c-0.4,0-0.7,0-1.1,0v1l0,0
	c0.3,0,0.7,0,1,0c3,0.1,5.5,1.6,7.3,3.7c1.8,2.1,2.9,4.7,3,6.9c0,0.3,0,0.5,0,0.8c0.1,7.1-5.8,10.2-9.2,9.7
	c-0.8-0.1-1.5-0.3-2.2-0.7V31.8z M20,34.1c0.3,0,0.7,0.1,1,0.1c0.2,0,0.3,0,0.5,0l0.1,0c0.8,0,1.7-0.1,2.5-0.3
	c0.8-0.2,1.7-0.5,2.5-0.8c4.1-1.9,7.7-6,7.7-12.5l0-0.2c0-1.2-0.2-2.4-0.4-3.5c-0.3-1.1-0.6-2.1-1.1-3.1C30.3,8.8,25.4,6.1,20,6v1
	c5,0.1,9.6,2.6,11.8,7c0.4,0.9,0.8,1.8,1,2.9c0.3,1,0.4,2.1,0.4,3.3l0,0.2c0,6-3.2,9.8-7.1,11.6c-0.7,0.3-1.5,0.6-2.3,0.8
	c-0.8,0.2-1.6,0.3-2.3,0.3l-0.1,0c-0.2,0-0.3,0-0.5,0c-0.3,0-0.7,0-1-0.1V34.1z M20,36.3c0.5,0,1,0.1,1.5,0.1l0.2,0
	c3.7-0.1,7.3-1.9,10-4.7c2.7-2.8,4.5-6.7,4.5-10.9v-0.3l0-0.1c0-1.5-0.2-2.9-0.5-4.2c-0.3-1.3-0.8-2.5-1.3-3.6
	C31.6,6.9,25.9,4,20,3.8v1C25.5,5,30.9,7.8,33.5,13c0.5,1,0.9,2.2,1.3,3.4c0.3,1.2,0.5,2.5,0.5,4h0l0,0.1c0,0.1,0,0.2,0,0.3
	c0,3.9-1.7,7.5-4.2,10.2c-2.5,2.6-5.9,4.3-9.3,4.4h-0.2c-0.5,0-1,0-1.5-0.1V36.3z M20,38.3c0.5,0.1,1.1,0.1,1.6,0.1
	c0.2,0,0.4,0,0.6,0c4-0.1,8-2.2,11-5.3c3-3.1,5-7.4,5-12c0-0.2,0-0.5,0-0.8v-0.1c-0.1-1.5-0.3-2.9-0.6-4.3c-0.3-1.4-0.8-2.7-1.4-3.9
	C33.2,5.8,27.1,1.8,20,1.9v1c6.6-0.1,12.5,3.7,15.3,9.5c0.6,1.2,1,2.4,1.3,3.7c0.3,1.3,0.5,2.7,0.6,4.1l0,0.1c0,0.2,0,0.5,0,0.7
	c-0.1,4.3-2,8.3-4.8,11.3c-2.8,3-6.5,4.9-10.3,5c-0.2,0-0.4,0-0.5,0c-0.5,0-1.1,0-1.6-0.1V38.3z M20,40.2v-1c0.5,0,1,0.1,1.5,0.1
	h0.2h0c4.9-0.1,9.2-2.2,12.3-5.6c3.2-3.4,5.1-8.1,5.1-13.1v-0.2l0-0.1c0-1.5-0.2-3-0.5-4.3c-0.3-1.4-0.8-2.7-1.4-4
	C34.1,5.5,27.6,1,20,1V0C28,0,34.8,4.7,38.1,11.5c0.7,1.3,1.1,2.7,1.5,4.2c0.4,1.5,0.5,3,0.6,4.6v0.1l0,0.2c0,5.3-2,10.2-5.4,13.8
	c-3.3,3.6-7.9,5.9-13.1,6h-0.2C21,40.3,20.5,40.3,20,40.2"/>
</svg>
