<?xml version="1.0" encoding="utf-8"?>
<!-- Generator: Adobe Illustrator 21.0.0, SVG Export Plug-In . SVG Version: 6.00 Build 0)  -->
<svg version="1.1" id="logoEEE" xmlns="http://www.w3.org/2000/svg" xmlns:xlink="http://www.w3.org/1999/xlink" x="0px" y="0px"
	 viewBox="0 0 108.2 111.9" style="enable-background:new 0 0 108.2 111.9;" xml:space="preserve">
<style type="text/css">
	.st0{fill:none;stroke:#F6A000;stroke-miterlimit:10;}
</style>
<path class="st0" stroke="#F6A000" stroke-width="1" d="M53.8,111.9c0-0.4,0-0.8,0-1.3c-20.6-1.4-37.8-14.3-46-31.9c-1.7-3.6-3-7.4-3.8-11.4c-0.9-4-1.3-8.2-1.3-12.5
	c0,0,0-0.1,0-0.2C2.9,34.1,14.6,16.3,31.7,7.9C35,6.2,38.5,5,42.2,4.1c3.7-0.9,7.5-1.3,11.5-1.3c0.1,0,0.1,0,0.2,0l0.1,0
	c20.3,0,37.8,12,46.2,29.4c1.6,3.4,2.9,7,3.8,10.7c0.9,3.7,1.4,7.7,1.5,11.7c0,0.1,0,0.1,0,0.2c0,0.2,0,0.4,0,0.6
	c0,13.5-5.2,26-13.7,35.2c-8.4,9.2-20.2,15-33.2,15.2h0c-0.2,0-0.3,0-0.5,0c-1.4,0-2.7-0.1-4-0.2C36.4,104.2,21.1,93.9,13.4,78
	c-1.6-3.3-2.9-6.9-3.9-10.7C8.6,63.4,8.1,59.3,8,55.1L8,55c0-0.1,0-0.2,0-0.3C7.8,42.1,13,30.6,21.4,22.1
	c8.4-8.5,19.8-13.9,32.2-14.2c0.1,0,0.2,0,0.4,0l0.1,0c17.9-0.2,33.6,9.8,41.3,25.7c1.5,3.1,2.7,6.4,3.6,9.9
	c0.9,3.5,1.4,7.2,1.5,11.1l0,0.2c0,0.7,0,1.3,0,1.9c-0.2,11.6-5.3,22.4-12.9,30.4c-7.5,8-17.6,13.2-27.7,13.5c-0.5,0-1,0-1.5,0
	c-1.5,0-2.9-0.1-4.4-0.3c-14-1.5-28-9.1-35.3-23.3c-1.6-3-2.9-6.4-3.7-10.1c-0.9-3.7-1.5-7.7-1.5-12v0c0-0.1,0-0.1,0-0.2
	c0-0.4,0-0.8,0-1.2c0.1-10.1,5-20.1,12.2-27.6c7.3-7.6,16.9-12.6,26.9-12.8c0.4,0,0.7,0,1.1,0c0.1,0,0.3,0,0.4,0
	c14.7,0.4,29.1,7.9,36.3,22c1.4,2.8,2.5,5.8,3.4,9.1c0.8,3.3,1.3,6.9,1.4,10.7h0c0,0.1,0,0.1,0,0.2c0,0.3,0,0.5,0,0.8
	c0,10.6-4.6,20.3-11.4,27.4c-6.8,7.1-16,11.6-25,11.8c-0.2,0-0.4,0-0.6,0c-1.3,0-2.7-0.1-4-0.2c-8.1-0.8-16.3-4.2-22.8-10
	C23.6,78.1,18.4,68,18.4,54.7v0v0c0-9.1,4.1-18,10.5-24.7c6.4-6.7,15.2-11.1,24.7-11.1c0.1,0,0.3,0,0.4,0c13.4,0.1,25.7,7,31.8,19
	c1.2,2.4,2.1,5,2.8,7.7c0.7,2.8,1.1,5.8,1.1,8.9c0,0.2,0,0.4,0,0.6c0.1,16.2-8.7,26.5-19,31.2c-2,0.9-4.1,1.6-6.1,2.1
	c-2.1,0.5-4.2,0.8-6.2,0.8c-0.1,0-0.2,0-0.4,0c-0.4,0-0.8,0-1.3,0c-0.9,0-1.8-0.1-2.7-0.2c-6.3-0.8-13.1-3.9-18.7-8.6
	c-6.4-5.4-11-13.2-11.2-22.5c0-0.5,0-1,0-1.5c0.4-12.9,5.8-23.1,15.8-28.3c2-1,4.1-1.8,6.4-2.4c2.3-0.6,4.9-1.1,7.6-1.3h0l0.1,0l0,0
	c0.9-0.1,1.9-0.1,2.7,0c8.2,0.2,14.9,4.4,19.7,9.9c4.9,5.6,7.7,12.6,8.2,18.6c0,0.8,0.1,1.4,0.1,2c0.4,19-15.7,27.4-24.8,26
	c-2.1-0.3-4.1-0.9-5.9-1.8c-3.7-1.8-6.4-5-7-10.1c0-4.8,0-9.6,0-14.4c0,0,0,0,0-0.1c0-0.1,0-0.2,0-0.2s0-0.2,0-0.2v-1.3h7h27.3
	C79.3,35.6,66.6,27.2,54,27.6c-12.3,0.3-24.4,8.9-26.2,25.7c0,0,0,0,0,0.1c0,0.2-0.1,0.5-0.1,0.7c0,0,0,0,0,0c0,0,0,0,0,0
	c0,0,0,0,0,0c0,0,0,0,0,0c0,0,0,0,0,0c0,0,0,0,0,0v0c0,0,0,0,0,0c0,0,0,0,0,0c0,0,0,0,0,0c0,0,0,0,0,0c0,0,0,0,0,0c0,0,0,0,0,0
	c0,0,0,0,0,0c0,0,0,0,0,0c0,0,0,0,0,0c0,0,0,0,0,0l0,0c0,0.4-0.1,0.9-0.1,1.3c0.3,17.2,12.8,28,26.4,29.9c11.6,1.6,24-3.3,30.2-16.3
	c2-4.1,3-8.9,3.2-14.1c0-0.8,0-1.6-0.1-2.4c-0.5-6.5-3.6-14.2-8.8-20.2c-5.3-6.1-12.7-10.6-21.7-10.9c-0.9,0-1.9,0-2.8,0.1l-0.2,0
	c-0.1,0,0,0-0.1,0c-2.9,0.2-5.5,0.7-8.1,1.3c-2.5,0.7-4.8,1.6-7,2.7c-11,5.7-16.9,16.7-17.3,30.6c0,0.5,0,1.1,0,1.7
	c0.2,10.2,5.3,18.6,12.2,24.5c6.1,5.2,13.6,8.4,20.5,9.3c0.9,0.1,1.8,0.2,2.7,0.2c0.5,0,0.9,0,1.4,0c0.2,0,0.3,0,0.4,0
	c2.2-0.1,4.5-0.4,6.7-0.9c2.2-0.5,4.5-1.3,6.7-2.3C83,83.7,92.4,72.5,92.4,55.1c0-0.2,0-0.5,0-0.6c-0.1-3.3-0.5-6.5-1.2-9.5
	c-0.7-3-1.7-5.7-3-8.3C81.6,23.7,68.3,16.3,54,16.2c-0.1,0-0.3,0-0.4,0c-10.2,0-19.7,4.7-26.6,11.9C20,35.3,15.6,44.9,15.6,54.7v0v0
	c0,14.1,5.6,24.9,13.7,32.1c7,6.3,15.8,9.9,24.6,10.7c1.4,0.1,2.7,0.2,4,0.2c0.2,0,0.5,0,0.6,0c9.8-0.2,19.7-5,27-12.6
	c7.3-7.6,12.2-18,12.2-29.3c0-0.3,0-0.5,0-0.8c0,0,0-0.1,0-0.2c-0.1-4-0.6-7.8-1.5-11.3c-0.9-3.5-2.1-6.8-3.6-9.7
	C85,18.7,69.7,10.7,54,10.4c-0.1,0-0.3,0-0.4,0c-0.4,0-0.8,0-1.1,0C41.7,10.6,31.3,16,23.6,24c-7.7,8-12.9,18.7-13,29.5
	c0,0.4,0,0.8,0,1.2c0,0.1,0,0.1,0,0.2c0.1,4.5,0.7,8.7,1.6,12.6c1,3.9,2.3,7.5,4,10.7C24.1,93.5,39,101.5,54,103
	c1.5,0.1,2.9,0.2,4.4,0.3c0.5,0,1.1,0,1.6,0c10.9-0.3,21.6-5.8,29.7-14.3c8-8.4,13.4-19.9,13.6-32.2c0-0.7,0-1.3,0-2v-0.2
	c-0.1-4-0.7-7.9-1.6-11.6c-0.9-3.7-2.2-7.2-3.8-10.5C89.5,15.6,72.9,5,54,5.2l-0.1,0c-0.1,0-0.3,0-0.4,0c-13.1,0.3-25.2,6-34,15
	c-8.8,9-14.3,21.2-14.2,34.5c0,0.2,0,0.3,0,0.4v0.1c0.1,4.4,0.7,8.7,1.6,12.7c0.9,4,2.3,7.8,4,11.3c8.2,16.9,24.5,27.8,43.1,29.2
	c1.3,0.1,2.7,0.2,4,0.2c0.2,0,0.4,0,0.5,0c13.9-0.2,26.3-6.4,35.2-16.1c8.9-9.7,14.4-22.9,14.4-37.1c0-0.2,0-0.4,0-0.7
	c0-0.1,0-0.1,0-0.2c-0.1-4.2-0.6-8.3-1.5-12.3c-0.9-3.9-2.3-7.7-4-11.3C93.8,12.7,75.3,0,54,0l-0.1,0c0,0-0.1,0-0.2,0
	c-4.2,0-8.2,0.5-12.1,1.4c-3.9,0.9-7.6,2.3-11.1,4C12.5,14.3,0.2,33,0,54.7c0,0.1,0,0.1,0,0.2c0,4.5,0.4,8.8,1.4,13
	c0.9,4.2,2.3,8.2,4,12C14,98.4,32.2,111.5,53.8,111.9 M47,40.8c0.3-4.7,3.3-7.5,6.9-8.4c5.2-1.2,11.6,1.7,11.8,8.7
	c0,2.9,0,5.4,0,8.3H54H47C47,46.5,47,43.7,47,40.8z"/>
</svg>


